<svg xmlns="http://www.w3.org/2000/svg" viewBox="0 0 32 32">
  <rect width="32" height="32" rx="9" fill="#0b0f19"/>
  <rect x="2" y="2" width="28" height="28" rx="8" fill="#f59e0b" fill-opacity="0.15" stroke="#f59e0b" stroke-width="1.8" stroke-opacity="0.45"/>
  <g transform="translate(4, 4)">
    <path d="M8.5 14.5A2.5 2.5 0 0011 17c1.38 0 2.5-1.12 2.5-2.5 0-1.66-1.5-3.5-2.5-4.5-1 1-2.5 2.84-2.5 4.5z M12 2c1.66 0 3 1.34 3 3 0 .74-.27 1.42-.72 1.95 2.14 1.13 3.72 3.25 3.72 5.8 0 3.87-3.13 7-7 7s-7-3.13-7-7c0-3.15 2.1-5.81 5-6.72V5c0-1.66 1.34-3 3-3z" 
          fill="none" stroke="#fbbf24" stroke-width="2" stroke-linecap="round" stroke-linejoin="round"/>
  </g>
</svg>
